HIERARCHY
ROOT Hips
{
	OFFSET	0.00	0.00	0.00
	CHANNELS 6 Xposition Yposition Zposition Zrotation Xrotation Yrotation
	JOINT LeftUpLeg
	{
		OFFSET	 0.126116	-0.014019	-0.065224
		CHANNELS 3 Zrotation Xrotation Yrotation
		JOINT LeftLeg
		{
			OFFSET	 0.000000	 0.000000	 0.569914
			CHANNELS 3 Zrotation Xrotation Yrotation
			JOINT LeftFoot
			{
				OFFSET	 0.000000	 0.000000	 0.544423
				CHANNELS 3 Zrotation Xrotation Yrotation
				JOINT LeftToeBase
				{
					OFFSET	 0.000000	 0.000000	 0.207117
					CHANNELS 3 Zrotation Xrotation Yrotation
					End Site
					{
						OFFSET	 0.000000	 0.000000	 0.207117
					}
				}
			}
		}
	}
	JOINT RightUpLeg
	{
		OFFSET	-0.124023	-0.008373	-0.065224
		CHANNELS 3 Zrotation Xrotation Yrotation
		JOINT RightLeg
		{
			OFFSET	 0.000000	 0.000000	 0.570047
			CHANNELS 3 Zrotation Xrotation Yrotation
			JOINT RightFoot
			{
				OFFSET	 0.000000	 0.000000	 0.544354
				CHANNELS 3 Zrotation Xrotation Yrotation
				JOINT RightToeBase
				{
					OFFSET	 0.000000	 0.000000	 0.207540
					CHANNELS 3 Zrotation Xrotation Yrotation
					End Site
					{
						OFFSET	 0.000000	 0.000000	 0.207540
					}
				}
			}
		}
	}
	JOINT Spine
	{
		OFFSET	 0.000184	-0.007763	 0.117403
		CHANNELS 3 Zrotation Xrotation Yrotation
		JOINT Spine1
		{
			OFFSET	 0.000000	 0.000000	 0.137269
			CHANNELS 3 Zrotation Xrotation Yrotation
			JOINT Spine2
			{
				OFFSET	 0.000000	 0.000000	 0.156879
				CHANNELS 3 Zrotation Xrotation Yrotation
				JOINT LeftShoulder
				{
					OFFSET	 0.080501	-0.002496	 0.160144
					CHANNELS 3 Zrotation Xrotation Yrotation
					JOINT LeftArm
					{
						OFFSET	 0.000000	 0.000000	 0.164363
						CHANNELS 3 Zrotation Xrotation Yrotation
						JOINT LeftForeArm
						{
							OFFSET	 0.000000	 0.000000	 0.364576
							CHANNELS 3 Zrotation Xrotation Yrotation
							JOINT LeftHand
							{
								OFFSET	 0.000000	 0.000000	 0.360812
								CHANNELS 3 Zrotation Xrotation Yrotation
								JOINT LeftHandIndex1
								{
									OFFSET	 0.000000	 0.000000	 0.086006
									CHANNELS 3 Zrotation Xrotation Yrotation
									JOINT LeftHandIndex2
									{
										OFFSET	 0.000000	 0.000000	 0.047237
										CHANNELS 3 Zrotation Xrotation Yrotation
										JOINT LeftHandIndex3
										{
											OFFSET	-0.004284	-0.000551	 0.038165
											CHANNELS 3 Zrotation Xrotation Yrotation
											End Site
											{
												OFFSET	-0.004284	-0.000551	 0.038165
											}
										}
									}
								}
							}
						}
					}
				}
				JOINT Neck
				{
					OFFSET	 0.000000	 0.000000	 0.176489
					CHANNELS 3 Zrotation Xrotation Yrotation
					JOINT Head
					{
						OFFSET	 0.000000	-0.001747	 0.077940
						CHANNELS 3 Zrotation Xrotation Yrotation
						End Site
						{
							OFFSET	 0.000000	-0.001747	 0.077940
						}
					}
				}
				JOINT RightShoulder
				{
					OFFSET	-0.080363	 0.000306	 0.159706
					CHANNELS 3 Zrotation Xrotation Yrotation
					JOINT RightArm
					{
						OFFSET	 0.000000	 0.000000	 0.164196
						CHANNELS 3 Zrotation Xrotation Yrotation
						JOINT RightForeArm
						{
							OFFSET	 0.000000	 0.000000	 0.365611
							CHANNELS 3 Zrotation Xrotation Yrotation
							JOINT RightHand
							{
								OFFSET	 0.000000	 0.000000	 0.360648
								CHANNELS 3 Zrotation Xrotation Yrotation
								JOINT RightHandIndex1
								{
									OFFSET	 0.000000	 0.000000	 0.069977
									CHANNELS 3 Zrotation Xrotation Yrotation
									JOINT RightHandIndex2
									{
										OFFSET	 0.000000	 0.000000	 0.052305
										CHANNELS 3 Zrotation Xrotation Yrotation
										JOINT RightHandIndex3
										{
											OFFSET	 0.009002	-0.000782	 0.042196
											CHANNELS 3 Zrotation Xrotation Yrotation
											End Site
											{
												OFFSET	 0.009002	-0.000782	 0.042196
											}
										}
									}
								}
							}
						}
					}
				}
			}
		}
	}
}
MOTION
Frames:    7
Frame Time: 0.03333334
-0.708256	-1.652736	 1.271675	-176.134500	 5.048730	-4.297287	-29.345820	-7.426123	-175.362300	-0.176883	-9.167809	 0.282927	-15.842720	 50.874200	 5.125445	-2.385833	 28.452760	 0.000004	 25.988420	-12.556020	-178.677800	-5.425391	-24.227670	 2.252407	-52.589410	 86.643570	 63.887020	 2.384659	 28.388700	-0.000001	-20.959310	 6.990303	 7.803176	-11.594180	-7.514968	-11.831200	 24.872510	-8.608844	 7.118114	-91.776180	 78.527400	-180.000000	-32.038390	 6.312763	 19.535770	-10.869500	-8.032676	-62.411590	 7.431067	-3.431392	-4.093752	-4.131196	 21.524690	 0.986298	-5.167839	 0.733520	 3.519257	-1.378229	 35.397820	-2.634230	 1.482665	 8.051295	 0.942231	-9.261443	-9.197168	-3.420310	 89.782140	 78.203900	 180.000000	-28.404110	-1.070995	-16.907010	-0.070130	-16.429850	 51.020570	-13.886860	 28.272710	 109.430500	 5.715225	 19.176060	-3.692089	 5.027514	 0.245388	-9.378011	-2.350882	 35.473990	 5.254307
-0.706639	-1.650583	 1.271164	-176.075500	 4.956908	-4.462902	-29.274870	-8.235125	-175.264400	 0.218706	-11.728510	 0.441480	-16.908570	 51.895230	 6.098433	-2.385833	 28.452760	 0.000004	 26.760950	-12.983640	-178.359400	-5.815502	-25.221050	 2.171368	-73.022670	 87.579810	 84.606910	 2.384659	 28.388700	-0.000001	-21.470620	 6.896471	 8.010047	-12.018560	-6.471940	-11.907820	 24.957150	-9.087428	 7.243340	-91.776190	 78.527360	-180.000000	-30.309170	 8.323691	 23.696490	-11.907750	-8.313770	-69.237100	 7.274904	-3.524977	-4.038785	-4.131196	 21.524690	 0.986298	-5.167839	 0.733520	 3.519257	-1.378229	 35.397820	-2.634230	 1.436051	 8.005639	 1.082751	-9.208925	-9.012620	-3.359232	 89.782100	 78.203870	 180.000000	-27.829820	 0.546104	-17.631180	 1.365518	-17.378940	 55.846420	-13.633430	 28.663620	 105.613500	 5.715225	 19.176060	-3.692089	 5.027514	 0.245388	-9.378011	-2.350882	 35.473990	 5.254307
-0.699334	-1.639822	 1.268873	-175.895200	 4.470974	-4.947526	-29.752790	-9.853736	-174.984700	 1.957465	-19.893490	 1.332149	-21.599100	 55.286910	 10.323290	-2.385833	 28.452760	 0.000004	 28.554170	-14.836190	-176.952900	-6.654133	-29.136490	 2.070320	-166.175200	 87.998460	 178.244200	 2.384659	 28.388700	-0.000001	-24.044320	 6.493995	 8.911626	-14.022100	-0.339904	-12.866490	 25.786600	-12.069290	 9.052545	-91.776170	 78.527400	 180.000000	-19.857860	 19.768700	 37.600320	-15.634000	-8.164061	-94.146440	 6.660429	-3.875796	-3.833600	-4.131196	 21.524690	 0.986298	-5.167839	 0.733520	 3.519257	-1.378229	 35.397820	-2.634230	 1.455865	 8.017922	 1.299820	-9.075315	-8.927011	-3.312012	 89.782120	 78.203930	 180.000000	-25.302220	 10.221770	-17.804960	 7.156900	-19.896640	 73.762650	-16.959140	 29.220140	 91.535260	 5.715225	 19.176060	-3.692089	 5.027514	 0.245388	-9.378011	-2.350882	 35.473990	 5.254307
-0.678279	-1.603176	 1.264084	-175.904400	 4.435604	-4.815639	-33.617600	-8.419969	-175.511500	 5.223898	-31.406170	 3.753731	-32.124250	 60.397510	 20.303570	-2.385833	 28.452760	 0.000004	 30.380480	-20.261770	-172.458700	-6.113419	-35.650010	 2.794252	 44.543020	 79.803430	-35.170680	 2.384659	 28.388700	-0.000001	-31.656180	 5.572501	 7.330301	-21.016700	 16.565730	-9.890423	 28.681040	-21.724070	 12.861360	-91.776220	 78.527380	-180.000000	 35.980440	 46.797570	-10.439660	-16.355070	-7.121990	-100.485800	 5.908563	-4.251579	-3.601719	-4.131196	 21.524690	 0.986298	-5.167839	 0.733520	 3.519257	-1.378229	 35.397820	-2.634230	 1.820619	 8.276855	 0.904407	-8.941497	-9.521799	-3.210046	 89.782090	 78.203900	 180.000000	-22.813980	 53.333020	-2.859448	 9.340466	-21.169270	 80.481410	-61.603490	 19.514630	 82.680940	 5.715225	 19.176060	-3.692089	 5.027514	 0.245388	-9.378011	-2.350882	 35.473990	 5.254307
-0.653273	-1.556740	 1.263345	-176.044700	 7.586837	-2.227047	-36.148700	-5.067778	-179.329300	 2.129895	-35.929980	 2.397974	-28.224340	 56.761680	 20.249070	-2.385833	 28.452760	 0.000004	 32.122530	-26.499170	-169.076400	-7.298622	-36.745650	 2.156576	 41.171340	 71.823910	-33.824550	 2.384659	 28.388700	-0.000001	-37.171340	 5.365395	-2.129546	-28.321480	 21.989180	 0.255804	 29.052790	-27.516780	 11.244810	-91.776180	 78.527420	-180.000000	 35.742860	 50.947900	-65.286740	-8.300760	-3.432956	-26.940790	 5.712419	-4.645959	-3.555132	-4.131196	 21.524690	 0.986298	-5.167839	 0.733520	 3.519257	-1.378229	 35.397820	-2.634230	 2.370719	 8.560570	 0.070767	-8.734738	-10.062690	-2.315897	 89.782110	 78.203870	 180.000000	-38.854850	 70.863060	 31.408110	-5.408518	-12.659650	 33.725540	-86.124130	-14.880320	 70.202810	 5.715225	 19.176060	-3.692089	 5.027514	 0.245388	-9.378011	-2.350882	 35.473990	 5.254307
-0.612498	-1.493933	 1.263682	-175.915100	 6.815322	-1.060757	-33.205480	 0.460076	 179.212100	 0.574416	-35.748710	 1.476711	-16.865710	 43.179180	 12.910170	-2.385833	 28.452760	 0.000004	 30.172700	-26.471620	-171.264600	-8.238650	-35.420260	 1.543355	 38.356860	 68.775930	-31.314290	 2.384659	 28.388700	-0.000001	-37.874730	 6.653889	-4.012948	-29.204840	 21.513970	 2.491681	 28.705740	-28.862260	 10.338900	-91.776140	 78.527400	 180.000000	 32.074730	 55.822940	-67.242840	-7.130934	-2.440249	-17.168650	 6.079195	-4.572349	-3.682985	-4.131196	 21.524690	 0.986298	-5.167839	 0.733520	 3.519257	-1.378229	 35.397820	-2.634230	 2.425552	 8.787565	-0.211026	-8.978900	-10.210060	-3.132472	 89.782100	 78.203900	 180.000000	-38.548030	 69.928460	 33.201240	-6.353922	-9.221686	 24.878350	-86.545110	-20.037250	 68.532680	 5.715225	 19.176060	-3.692089	 5.027514	 0.245388	-9.378011	-2.350882	 35.473990	 5.254307
-0.561085	-1.419674	 1.264182	-176.585500	 5.588554	 0.626628	-29.474260	 1.239118	 176.103200	-0.486427	-42.341840	 0.987337	-10.654330	 36.508420	 9.178547	-2.385833	 28.452760	 0.000004	 25.328730	-26.353210	-177.265300	-7.845981	-35.704580	 1.783653	 32.203940	 68.297080	-25.194510	 2.384659	 28.388700	-0.000001	-36.402390	 8.083409	-5.972494	-28.558580	 20.249030	 1.698899	 28.867860	-28.964490	 12.047440	-91.776170	 78.527380	-180.000000	 37.696450	 56.963970	-52.719590	-8.432748	-6.797251	-45.788400	 7.997141	-3.153257	-4.286546	-4.131196	 21.524690	 0.986298	-5.167839	 0.733520	 3.519257	-1.378229	 35.397820	-2.634230	 1.857847	 8.274067	-1.069603	-10.283170	-9.849558	-5.101716	 89.782040	 78.203870	-180.000000	-36.254400	 69.593310	 24.873190	-4.043528	-11.735060	 34.052150	-81.475180	-14.261960	 71.820620	 5.715225	 19.176060	-3.692089	 5.027514	 0.245388	-9.378011	-2.350882	 35.473990	 5.254307
